HIERARCHY
ROOT mixamorig:Hips
{
	OFFSET -0.000008 104.274872 1.554316
	CHANNELS 6 Xposition Yposition Zposition Xrotation Yrotation Zrotation
	JOINT mixamorig:Spine
	{
		OFFSET -0.000005 10.181595 0.131519
		CHANNELS 6 Xposition Yposition Zposition Xrotation Yrotation Zrotation
		JOINT mixamorig:Spine1
		{
			OFFSET -0.000000 9.893959 -1.470707
			CHANNELS 6 Xposition Yposition Zposition Xrotation Yrotation Zrotation
			JOINT mixamorig:Spine2
			{
				OFFSET -0.000000 9.220757 -1.370641
				CHANNELS 6 Xposition Yposition Zposition Xrotation Yrotation Zrotation
				JOINT mixamorig:Neck
				{
					OFFSET 0.000001 16.740417 -2.049036
					CHANNELS 6 Xposition Yposition Zposition Xrotation Yrotation Zrotation
					JOINT mixamorig:Head
					{
						OFFSET 0.000000 9.617874 1.685006
						CHANNELS 6 Xposition Yposition Zposition Xrotation Yrotation Zrotation
						JOINT mixamorig:HeadTop_End
						{
							OFFSET 0.000002 22.037354 7.501101
							CHANNELS 6 Xposition Yposition Zposition Xrotation Yrotation Zrotation
							End Site
							{
								OFFSET 0.000168 2310.654297 -282.823242
							}
						}
					}
				}
				JOINT mixamorig:RightShoulder
				{
					OFFSET -4.569970 11.014908 -2.160885
					CHANNELS 6 Xposition Yposition Zposition Xrotation Yrotation Zrotation
					JOINT mixamorig:RightArm
					{
						OFFSET -10.592851 -0.524811 -2.232101
						CHANNELS 6 Xposition Yposition Zposition Xrotation Yrotation Zrotation
						JOINT mixamorig:RightForeArm
						{
							OFFSET -27.841511 0.000031 -0.000004
							CHANNELS 6 Xposition Yposition Zposition Xrotation Yrotation Zrotation
							JOINT mixamorig:RightHand
							{
								OFFSET -28.328831 -0.000015 0.000015
								CHANNELS 6 Xposition Yposition Zposition Xrotation Yrotation Zrotation
								JOINT mixamorig:RightHandThumb1
								{
									OFFSET -2.464806 -1.573990 2.681852
									CHANNELS 6 Xposition Yposition Zposition Xrotation Yrotation Zrotation
									JOINT mixamorig:RightHandThumb2
									{
										OFFSET -3.215179 -1.872803 1.924282
										CHANNELS 6 Xposition Yposition Zposition Xrotation Yrotation Zrotation
										JOINT mixamorig:RightHandThumb3
										{
											OFFSET -2.654831 -1.527969 1.512609
											CHANNELS 6 Xposition Yposition Zposition Xrotation Yrotation Zrotation
											JOINT mixamorig:RightHandThumb4
											{
												OFFSET -2.018814 -1.152008 1.108052
												CHANNELS 6 Xposition Yposition Zposition Xrotation Yrotation Zrotation
												End Site
												{
													OFFSET -188.809540 -114.533607 132.431396
												}
											}
										}
									}
								}
								JOINT mixamorig:RightHandIndex1
								{
									OFFSET -9.108284 -0.517868 2.259835
									CHANNELS 6 Xposition Yposition Zposition Xrotation Yrotation Zrotation
									JOINT mixamorig:RightHandIndex2
									{
										OFFSET -3.699989 0.000000 0.001215
										CHANNELS 6 Xposition Yposition Zposition Xrotation Yrotation Zrotation
										JOINT mixamorig:RightHandIndex3
										{
											OFFSET -2.850006 0.000031 -0.000522
											CHANNELS 6 Xposition Yposition Zposition Xrotation Yrotation Zrotation
											JOINT mixamorig:RightHandIndex4
											{
												OFFSET -2.772186 -0.000015 -0.000020
												CHANNELS 6 Xposition Yposition Zposition Xrotation Yrotation Zrotation
												End Site
												{
													OFFSET -277.218445 0.000000 -0.050231
												}
											}
										}
									}
								}
								JOINT mixamorig:RightHandMiddle1
								{
									OFFSET -9.532516 -0.000031 -0.000023
									CHANNELS 6 Xposition Yposition Zposition Xrotation Yrotation Zrotation
									JOINT mixamorig:RightHandMiddle2
									{
										OFFSET -3.700005 -0.000015 0.003713
										CHANNELS 6 Xposition Yposition Zposition Xrotation Yrotation Zrotation
										JOINT mixamorig:RightHandMiddle3
										{
											OFFSET -2.949974 0.000015 -0.002054
											CHANNELS 6 Xposition Yposition Zposition Xrotation Yrotation Zrotation
											JOINT mixamorig:RightHandMiddle4
											{
												OFFSET -2.946640 0.000000 -0.000156
												CHANNELS 6 Xposition Yposition Zposition Xrotation Yrotation Zrotation
												End Site
												{
													OFFSET -294.664337 0.000000 -0.113670
												}
											}
										}
									}
								}
								JOINT mixamorig:RightHandRing1
								{
									OFFSET -9.103600 -0.043076 -1.865134
									CHANNELS 6 Xposition Yposition Zposition Xrotation Yrotation Zrotation
									JOINT mixamorig:RightHandRing2
									{
										OFFSET -3.379288 0.000000 -0.001055
										CHANNELS 6 Xposition Yposition Zposition Xrotation Yrotation Zrotation
										JOINT mixamorig:RightHandRing3
										{
											OFFSET -2.889687 -0.000015 0.000379
											CHANNELS 6 Xposition Yposition Zposition Xrotation Yrotation Zrotation
											JOINT mixamorig:RightHandRing4
											{
												OFFSET -2.638809 -0.000015 0.000941
												CHANNELS 6 Xposition Yposition Zposition Xrotation Yrotation Zrotation
												End Site
												{
													OFFSET -263.880371 0.000000 0.516020
												}
											}
										}
									}
								}
								JOINT mixamorig:RightHandPinky1
								{
									OFFSET -8.076683 -0.486710 -3.806280
									CHANNELS 6 Xposition Yposition Zposition Xrotation Yrotation Zrotation
									JOINT mixamorig:RightHandPinky2
									{
										OFFSET -3.600014 -0.000015 -0.003747
										CHANNELS 6 Xposition Yposition Zposition Xrotation Yrotation Zrotation
										JOINT mixamorig:RightHandPinky3
										{
											OFFSET -2.099983 0.000000 -0.005739
											CHANNELS 6 Xposition Yposition Zposition Xrotation Yrotation Zrotation
											JOINT mixamorig:RightHandPinky4
											{
												OFFSET -2.115768 -0.000031 -0.003680
												CHANNELS 6 Xposition Yposition Zposition Xrotation Yrotation Zrotation
												End Site
												{
													OFFSET -211.577087 0.000000 -0.350686
												}
											}
										}
									}
								}
							}
						}
					}
				}
				JOINT mixamorig:LeftShoulder
				{
					OFFSET 4.570447 11.014725 -2.160855
					CHANNELS 6 Xposition Yposition Zposition Xrotation Yrotation Zrotation
					JOINT mixamorig:LeftArm
					{
						OFFSET 10.592371 -0.524597 -2.232119
						CHANNELS 6 Xposition Yposition Zposition Xrotation Yrotation Zrotation
						JOINT mixamorig:LeftForeArm
						{
							OFFSET 27.841532 -0.000031 0.000026
							CHANNELS 6 Xposition Yposition Zposition Xrotation Yrotation Zrotation
							JOINT mixamorig:LeftHand
							{
								OFFSET 28.328846 -0.000061 0.000022
								CHANNELS 6 Xposition Yposition Zposition Xrotation Yrotation Zrotation
								JOINT mixamorig:LeftHandThumb1
								{
									OFFSET 2.466141 -1.576172 2.681732
									CHANNELS 6 Xposition Yposition Zposition Xrotation Yrotation Zrotation
									JOINT mixamorig:LeftHandThumb2
									{
										OFFSET 3.217812 -1.872070 1.916482
										CHANNELS 6 Xposition Yposition Zposition Xrotation Yrotation Zrotation
										JOINT mixamorig:LeftHandThumb3
										{
											OFFSET 2.656029 -1.528778 1.514513
											CHANNELS 6 Xposition Yposition Zposition Xrotation Yrotation Zrotation
											JOINT mixamorig:LeftHandThumb4
											{
												OFFSET 2.020889 -1.154053 1.115139
												CHANNELS 6 Xposition Yposition Zposition Xrotation Yrotation Zrotation
												End Site
												{
													OFFSET 190.885437 -115.081749 130.048782
												}
											}
										}
									}
								}
								JOINT mixamorig:LeftHandIndex1
								{
									OFFSET 9.109314 -0.518021 2.259871
									CHANNELS 6 Xposition Yposition Zposition Xrotation Yrotation Zrotation
									JOINT mixamorig:LeftHandIndex2
									{
										OFFSET 3.699989 0.000000 -0.000322
										CHANNELS 6 Xposition Yposition Zposition Xrotation Yrotation Zrotation
										JOINT mixamorig:LeftHandIndex3
										{
											OFFSET 2.850006 0.000000 0.000352
											CHANNELS 6 Xposition Yposition Zposition Xrotation Yrotation Zrotation
											JOINT mixamorig:LeftHandIndex4
											{
												OFFSET 2.774864 -0.000031 -0.000027
												CHANNELS 6 Xposition Yposition Zposition Xrotation Yrotation Zrotation
												End Site
												{
													OFFSET 277.486267 0.000000 -0.009857
												}
											}
										}
									}
								}
								JOINT mixamorig:LeftHandMiddle1
								{
									OFFSET 9.533394 0.000061 0.000044
									CHANNELS 6 Xposition Yposition Zposition Xrotation Yrotation Zrotation
									JOINT mixamorig:LeftHandMiddle2
									{
										OFFSET 3.699989 -0.000015 -0.000231
										CHANNELS 6 Xposition Yposition Zposition Xrotation Yrotation Zrotation
										JOINT mixamorig:LeftHandMiddle3
										{
											OFFSET 2.949997 -0.000015 -0.000059
											CHANNELS 6 Xposition Yposition Zposition Xrotation Yrotation Zrotation
											JOINT mixamorig:LeftHandMiddle4
											{
												OFFSET 2.952896 0.000031 0.000063
												CHANNELS 6 Xposition Yposition Zposition Xrotation Yrotation Zrotation
												End Site
												{
													OFFSET 295.289337 0.000000 0.022810
												}
											}
										}
									}
								}
								JOINT mixamorig:LeftHandRing1
								{
									OFFSET 9.104523 -0.042999 -1.865074
									CHANNELS 6 Xposition Yposition Zposition Xrotation Yrotation Zrotation
									JOINT mixamorig:LeftHandRing2
									{
										OFFSET 3.150009 -0.000031 0.000043
										CHANNELS 6 Xposition Yposition Zposition Xrotation Yrotation Zrotation
										JOINT mixamorig:LeftHandRing3
										{
											OFFSET 2.949982 -0.000015 0.000040
											CHANNELS 6 Xposition Yposition Zposition Xrotation Yrotation Zrotation
											JOINT mixamorig:LeftHandRing4
											{
												OFFSET 2.644348 0.000000 0.000057
												CHANNELS 6 Xposition Yposition Zposition Xrotation Yrotation Zrotation
												End Site
												{
													OFFSET 264.434631 0.000000 0.012105
												}
											}
										}
									}
								}
								JOINT mixamorig:LeftHandPinky1
								{
									OFFSET 8.077789 -0.486847 -3.806259
									CHANNELS 6 Xposition Yposition Zposition Xrotation Yrotation Zrotation
									JOINT mixamorig:LeftHandPinky2
									{
										OFFSET 3.599953 0.000031 0.014727
										CHANNELS 6 Xposition Yposition Zposition Xrotation Yrotation Zrotation
										JOINT mixamorig:LeftHandPinky3
										{
											OFFSET 2.100021 0.000015 0.007705
											CHANNELS 6 Xposition Yposition Zposition Xrotation Yrotation Zrotation
											JOINT mixamorig:LeftHandPinky4
											{
												OFFSET 2.125504 0.000031 0.007517
												CHANNELS 6 Xposition Yposition Zposition Xrotation Yrotation Zrotation
												End Site
												{
													OFFSET 212.550781 0.000000 0.625752
												}
											}
										}
									}
								}
							}
						}
					}
				}
			}
		}
	}
	JOINT mixamorig:RightUpLeg
	{
		OFFSET -8.207787 -6.751648 -1.599560
		CHANNELS 6 Xposition Yposition Zposition Xrotation Yrotation Zrotation
		JOINT mixamorig:RightLeg
		{
			OFFSET -0.000002 -44.370117 0.345942
			CHANNELS 6 Xposition Yposition Zposition Xrotation Yrotation Zrotation
			JOINT mixamorig:RightFoot
			{
				OFFSET 0.000003 -44.423679 -3.043532
				CHANNELS 6 Xposition Yposition Zposition Xrotation Yrotation Zrotation
				JOINT mixamorig:RightToeBase
				{
					OFFSET -0.000002 -8.728671 10.710558
					CHANNELS 6 Xposition Yposition Zposition Xrotation Yrotation Zrotation
					JOINT mixamorig:RightToe_End
					{
						OFFSET -0.000001 -0.000679 9.278119
						CHANNELS 6 Xposition Yposition Zposition Xrotation Yrotation Zrotation
						End Site
						{
							OFFSET 0.000000 -0.067690 927.812134
						}
					}
				}
			}
		}
	}
	JOINT mixamorig:LeftUpLeg
	{
		OFFSET 8.207793 -6.751686 -1.599556
		CHANNELS 6 Xposition Yposition Zposition Xrotation Yrotation Zrotation
		JOINT mixamorig:LeftLeg
		{
			OFFSET -0.000004 -44.370014 0.346954
			CHANNELS 6 Xposition Yposition Zposition Xrotation Yrotation Zrotation
			JOINT mixamorig:LeftFoot
			{
				OFFSET -0.000001 -44.423672 -3.044401
				CHANNELS 6 Xposition Yposition Zposition Xrotation Yrotation Zrotation
				JOINT mixamorig:LeftToeBase
				{
					OFFSET -0.000002 -8.728669 10.710558
					CHANNELS 6 Xposition Yposition Zposition Xrotation Yrotation Zrotation
					JOINT mixamorig:LeftToe_End
					{
						OFFSET -0.000003 -0.000679 9.278133
						CHANNELS 6 Xposition Yposition Zposition Xrotation Yrotation Zrotation
						End Site
						{
							OFFSET 0.000000 -0.068021 927.813477
						}
					}
				}
			}
		}
	}
}
MOTION
Frames: 3
Frame Time: 0.033333
0.000006 104.270477 1.554256 0.000010 0.000003 -0.000113 -0.000005 10.181587 0.131522 0.000001 -0.000003 0.000084 -0.000000 9.893967 -1.470711 0.000001 0.000000 -0.000000 -0.000000 9.220802 -1.370642 0.000000 -0.000000 -0.000000 0.000001 16.740433 -2.049030 0.000000 -0.000000 -0.000000 0.000000 9.617859 1.685014 0.000000 0.000000 0.000000 0.000002 22.037384 7.501101 0.000000 -0.000000 0.000000 -4.569968 11.014880 -2.160881 0.000008 0.000001 -0.000038 -10.592870 -0.524769 -2.231912 77.264855 29.487829 -23.755285 -27.841511 0.000006 0.000566 -47.149697 110.310417 64.159184 -28.328825 0.000020 0.000027 -0.000322 -0.000044 0.000006 -2.464422 -1.573753 2.682312 -48.470482 -166.742376 -11.330689 -3.215274 -1.872632 1.924669 153.278379 29.816446 -6.817941 -2.654962 -1.527888 1.513081 141.816570 27.813910 -39.646922 -2.018827 -1.151986 1.108053 -0.000002 -0.000003 0.000002 -9.108380 -0.517554 2.260138 103.863477 14.252966 -18.197806 -3.700062 0.000319 0.001515 100.593025 11.536244 -13.845029 -2.850081 0.000376 -0.000223 102.321787 8.752354 -10.857975 -2.772173 -0.000017 -0.000023 0.000000 0.000001 0.000001 -9.532574 0.000269 0.000283 104.573844 13.967705 -18.183704 -3.700072 0.000333 0.004023 104.076572 11.185460 -14.187431 -2.950040 0.000337 -0.001783 106.343908 9.227468 -12.292045 -2.946639 0.000014 -0.000157 -0.000001 -0.000004 -0.000000 -9.103703 -0.042761 -1.864843 103.453979 16.501826 -20.772603 -3.379361 0.000302 -0.000751 106.457562 12.369891 -16.526003 -2.889764 0.000326 0.000686 111.777439 8.087902 -11.985962 -2.638811 -0.000015 0.000942 -0.000001 0.000001 0.000001 -8.076761 -0.486403 -3.806027 86.959373 21.809801 -20.558057 -3.600084 0.000267 -0.003473 96.164398 14.890210 -16.138047 -2.100038 0.000300 -0.005419 101.481270 8.401490 -9.991841 -2.115755 -0.000039 -0.003682 -0.000001 -0.000002 0.000001 4.570446 11.014691 -2.160851 -0.000018 0.000010 -0.000021 10.592414 -0.524467 -2.232362 76.097815 -16.246349 12.748533 27.841843 0.000066 -0.000202 -63.167823 -110.694123 -83.304027 28.328842 -0.000027 0.000023 0.000026 -0.000090 -0.000001 2.465913 -1.576116 2.681894 -49.056628 167.142270 13.614284 3.217833 -1.871784 1.916364 150.430504 -28.174211 18.261148 2.656112 -1.528619 1.514436 135.881901 -28.964039 38.894632 2.020875 -1.154064 1.115142 0.000003 0.000002 0.000003 9.109376 -0.517840 2.259719 90.390628 -13.193984 13.271347 3.700035 0.000186 -0.000467 89.909291 -13.026843 13.023291 2.850061 0.000211 0.000206 90.717869 -12.965293 13.126026 2.774895 -0.000014 -0.000023 0.000004 -0.000001 -0.000000 9.533468 0.000208 -0.000089 83.233812 -14.072100 12.506717 3.700072 0.000166 -0.000357 87.544092 -17.747958 17.011476 2.950080 0.000159 -0.000202 87.264375 -19.716924 18.817140 2.952859 -0.000013 0.000061 0.000001 0.000000 -0.000001 9.104599 -0.042869 -1.865221 80.336801 -17.747345 15.017002 3.150062 0.000154 -0.000066 84.260581 -20.666754 18.732246 2.950053 0.000141 -0.000059 84.757061 -19.237306 17.582135 2.644324 0.000034 0.000055 -0.000002 -0.000001 0.000000 8.077854 -0.486790 -3.806379 58.633383 -24.672195 14.383890 3.599996 0.000108 0.014575 61.003636 -17.211909 10.515888 2.100032 0.000128 0.007565 63.558353 -14.144505 9.105615 2.125503 -0.000034 0.007513 0.000000 -0.000000 -0.000003 -8.207786 -6.751667 -1.599560 -0.077001 -0.000003 0.000080 -0.000002 -44.370110 0.345938 0.153719 -0.000000 -0.000000 0.000000 -44.423679 -3.043532 -0.076700 0.000000 -0.000002 -0.000006 -8.728667 10.710559 -0.000009 -0.000000 -0.000000 -0.000001 -0.000679 9.278123 0.000000 -0.000000 -0.000000 8.207792 -6.751710 -1.599556 -0.074518 -0.000003 0.000081 -0.000002 -44.370014 0.346960 0.148822 0.000002 0.000000 -0.000001 -44.423664 -3.044403 -0.074314 0.000000 -0.000002 -0.000004 -8.728671 10.710558 0.000007 -0.000000 -0.000000 0.000000 -0.000680 9.278137 -0.000000 0.000000 -0.000001 
0.000006 104.270477 1.554256 0.000010 0.000003 -0.000113 -0.000005 10.181587 0.131522 0.000001 -0.000003 0.000084 -0.000000 9.893967 -1.470711 0.000001 0.000000 -0.000000 -0.000000 9.220802 -1.370642 0.000000 -0.000000 -0.000000 0.000001 16.740433 -2.049030 0.000000 -0.000000 -0.000000 0.000000 9.617859 1.685014 0.000000 0.000000 0.000000 0.000002 22.037384 7.501101 0.000000 -0.000000 0.000000 -4.569968 11.014880 -2.160881 0.000008 0.000001 -0.000038 -10.592869 -0.524781 -2.231874 78.495792 34.016593 -28.062058 -27.841507 -0.000007 0.000566 -45.197295 106.921571 58.645883 -28.328810 0.000020 0.000035 -0.000320 -0.000043 0.000008 -2.464452 -1.573693 2.682263 -55.050136 -174.676501 -32.841124 -3.215286 -1.872617 1.924669 152.124254 29.056417 -11.738196 -2.654957 -1.527882 1.513079 140.792001 28.045686 -39.417486 -2.018838 -1.152013 1.108057 -0.000002 0.000001 0.000004 -9.108373 -0.517545 2.260129 102.346246 13.226605 -16.451434 -3.700053 0.000330 0.001511 101.600717 10.687644 -13.057567 -2.850084 0.000382 -0.000230 102.159221 8.170161 -10.107779 -2.772171 -0.000017 -0.000017 -0.000001 0.000000 -0.000000 -9.532574 0.000288 0.000280 102.786629 11.399902 -14.419919 -3.700050 0.000346 0.004003 104.858403 9.125792 -11.726562 -2.950042 0.000329 -0.001752 105.697184 9.048459 -11.914486 -2.946625 0.000001 -0.000150 0.000001 0.000003 -0.000000 -9.103682 -0.042737 -1.864839 102.846564 13.439098 -16.751251 -3.379306 0.000326 -0.000742 106.490654 8.086115 -10.835388 -2.889749 0.000360 0.000704 109.907818 7.205184 -10.323899 -2.638809 0.000001 0.000937 -0.000000 0.000000 0.000000 -8.076756 -0.486386 -3.806007 93.459814 18.003136 -18.943581 -3.600026 0.000294 -0.003486 98.016630 7.730007 -8.486197 -2.100003 0.000319 -0.005440 101.473040 4.208897 -4.884926 -2.115770 -0.000057 -0.003675 0.000001 -0.000000 -0.000002 4.570446 11.014691 -2.160851 -0.000018 0.000010 -0.000021 10.592439 -0.524454 -2.232385 76.337876 -26.284523 20.799610 27.841827 0.000062 -0.000197 -63.726724 -106.418999 -79.462592 28.328831 -0.000030 0.000017 0.000020 -0.000090 0.000001 2.465834 -1.575989 2.681855 -54.668698 191.124662 47.726247 3.217845 -1.871845 1.916368 152.704862 -26.767827 26.824226 2.656083 -1.528648 1.514450 133.370768 -29.601111 47.553430 2.020898 -1.154054 1.115151 0.000000 0.000000 0.000003 9.109362 -0.517830 2.259731 92.233645 -13.410078 13.925672 3.700035 0.000179 -0.000471 90.418843 -9.322807 9.407214 2.850043 0.000228 0.000204 88.766819 -7.985940 7.815208 2.774877 -0.000046 -0.000026 -0.000001 -0.000000 0.000001 9.533457 0.000220 -0.000090 88.334966 -14.645515 14.221850 3.700042 0.000182 -0.000399 85.802571 -10.902332 10.133244 2.950049 0.000179 -0.000198 86.791412 -11.607832 10.982064 2.952873 -0.000031 0.000062 0.000003 0.000001 0.000000 9.104574 -0.042846 -1.865231 84.631740 -15.060149 13.726561 3.150043 0.000192 -0.000102 84.885523 -13.287742 12.162165 2.950027 0.000161 -0.000071 87.952824 -13.169535 12.712770 2.644317 0.000015 0.000054 0.000000 -0.000000 0.000000 8.077825 -0.486778 -3.806398 61.486804 -20.291491 12.531622 3.600002 0.000111 0.014576 61.079390 -17.075372 10.449350 2.100044 0.000135 0.007561 63.800981 -12.816386 8.309147 2.125499 -0.000015 0.007519 -0.000001 -0.000002 -0.000001 -8.207786 -6.751667 -1.599560 -0.077001 -0.000003 0.000080 -0.000002 -44.370110 0.345938 0.153719 -0.000000 -0.000000 0.000000 -44.423679 -3.043532 -0.076700 0.000000 -0.000002 -0.000006 -8.728667 10.710559 -0.000009 -0.000000 -0.000000 -0.000001 -0.000679 9.278123 0.000000 -0.000000 -0.000000 8.207792 -6.751710 -1.599556 -0.074518 -0.000003 0.000081 -0.000002 -44.370014 0.346960 0.148822 0.000002 0.000000 -0.000001 -44.423664 -3.044403 -0.074314 0.000000 -0.000002 -0.000004 -8.728671 10.710558 0.000007 -0.000000 -0.000000 0.000000 -0.000680 9.278137 -0.000000 0.000000 -0.000001 
0.000006 104.270477 1.554256 0.000010 0.000003 -0.000113 -0.000005 10.181587 0.131522 0.000001 -0.000003 0.000084 -0.000000 9.893967 -1.470711 0.000001 0.000000 -0.000000 -0.000000 9.220802 -1.370642 0.000000 -0.000000 -0.000000 0.000001 16.740433 -2.049030 0.000000 -0.000000 -0.000000 0.000000 9.617859 1.685014 0.000000 0.000000 0.000000 0.000002 22.037384 7.501101 0.000000 -0.000000 0.000000 -4.569968 11.014880 -2.160881 0.000008 0.000001 -0.000038 -10.592862 -0.524801 -2.231860 78.432107 38.238210 -31.590988 -27.841518 0.000006 0.000549 -43.936513 104.785675 55.279030 -28.328815 0.000008 0.000029 -0.000322 -0.000043 0.000008 -2.464483 -1.573671 2.682266 -56.242424 -177.277601 -38.430285 -3.215290 -1.872625 1.924692 151.793660 28.665939 -14.475116 -2.654953 -1.527879 1.513072 141.114167 27.998293 -38.959484 -2.018818 -1.152002 1.108061 -0.000003 -0.000005 -0.000001 -9.108362 -0.517544 2.260135 102.767190 12.467516 -15.629959 -3.700048 0.000331 0.001540 102.978892 9.495308 -11.888791 -2.850066 0.000379 -0.000233 103.141689 7.152444 -9.006724 -2.772171 -0.000017 -0.000025 -0.000000 0.000001 -0.000000 -9.532578 0.000288 0.000267 102.644144 10.736739 -13.558206 -3.700041 0.000346 0.004011 104.451337 8.177052 -10.423157 -2.950043 0.000347 -0.001776 104.710188 8.409296 -10.879864 -2.946624 0.000014 -0.000157 -0.000000 -0.000000 -0.000000 -9.103676 -0.042737 -1.864834 103.195047 12.014848 -15.071594 -3.379334 0.000320 -0.000760 105.208423 6.802592 -8.913244 -2.889753 0.000347 0.000682 108.675714 6.586744 -9.233044 -2.638823 -0.000001 0.000947 0.000000 -0.000001 -0.000001 -8.076740 -0.486375 -3.806002 94.193684 15.732921 -16.752504 -3.600034 0.000299 -0.003472 98.205191 6.292069 -6.864048 -2.099988 0.000339 -0.005431 102.224463 3.615255 -4.217509 -2.115773 -0.000068 -0.003682 0.000003 0.000002 -0.000001 4.570446 11.014691 -2.160851 -0.000018 0.000010 -0.000021 10.592469 -0.524460 -2.232408 76.556059 -33.738942 26.915395 27.841835 0.000013 -0.000183 -64.550041 -102.804777 -76.702922 28.328814 -0.000027 0.000027 0.000023 -0.000089 -0.000002 2.465858 -1.575961 2.681849 -54.511569 195.051625 55.214959 3.217836 -1.871793 1.916374 153.692616 -26.687120 26.626799 2.656090 -1.528677 1.514469 133.294215 -29.651989 49.573561 2.020895 -1.154068 1.115143 -0.000002 -0.000002 0.000001 9.109379 -0.517843 2.259747 91.898877 -14.086895 14.544140 3.700049 0.000185 -0.000475 90.648215 -10.361877 10.495703 2.850041 0.000209 0.000215 89.700198 -8.808448 8.761423 2.774869 -0.000015 -0.000022 0.000001 -0.000002 0.000001 9.533468 0.000216 -0.000076 88.439072 -15.467057 15.047580 3.700047 0.000179 -0.000395 85.914648 -11.807066 10.996514 2.950046 0.000173 -0.000211 87.026589 -11.958116 11.359928 2.952887 -0.000031 0.000065 0.000003 0.000000 0.000001 9.104586 -0.042850 -1.865228 84.642081 -16.054867 14.637676 3.150040 0.000184 -0.000090 85.003405 -13.496615 12.378957 2.950020 0.000183 -0.000079 88.270503 -12.746117 12.371771 2.644325 0.000016 0.000058 -0.000003 -0.000000 -0.000000 8.077835 -0.486773 -3.806387 62.431672 -21.223245 13.345549 3.599986 0.000111 0.014598 61.761494 -17.257279 10.701718 2.100034 0.000126 0.007555 64.797185 -12.414813 8.211560 2.125502 -0.000016 0.007517 -0.000002 0.000001 0.000000 -8.207786 -6.751667 -1.599560 -0.077001 -0.000003 0.000080 -0.000002 -44.370110 0.345938 0.153719 -0.000000 -0.000000 0.000000 -44.423679 -3.043532 -0.076700 0.000000 -0.000002 -0.000006 -8.728667 10.710559 -0.000009 -0.000000 -0.000000 -0.000001 -0.000679 9.278123 0.000000 -0.000000 -0.000000 8.207792 -6.751710 -1.599556 -0.074518 -0.000003 0.000081 -0.000002 -44.370014 0.346960 0.148822 0.000002 0.000000 -0.000001 -44.423664 -3.044403 -0.074314 0.000000 -0.000002 -0.000004 -8.728671 10.710558 0.000007 -0.000000 -0.000000 0.000000 -0.000680 9.278137 -0.000000 0.000000 -0.000001 
